<?xml version="1.0" encoding="UTF-8" standalone="no"?> <svg xmlns="http://www.w3.org/2000/svg" viewBox="0 0 48 48"><defs><style>.cls-1{fill:#c6512b;}.cls-2{fill:#eaeff0;}.cls-3{fill:#ffd188;}.cls-4{fill:#f9a06f;}</style></defs><title>Double Bed</title><g id="Double_Bed" data-name="Double Bed"><path class="cls-1" d="M43,35H39a1,1,0,0,0-1,1v4a2,2,0,0,0,2,2h2a2,2,0,0,0,2-2V36A1,1,0,0,0,43,35Z"/><path class="cls-1" d="M9,35H5a1,1,0,0,0-1,1v4a2,2,0,0,0,2,2H8a2,2,0,0,0,2-2V36A1,1,0,0,0,9,35Z"/><path class="cls-1" d="M42,27.71H6a1,1,0,0,1-1-1V13a7.008,7.008,0,0,1,7-7H36a7.008,7.008,0,0,1,7,7V26.71A1,1,0,0,1,42,27.71Z"/><path class="cls-2" d="M22,24H10a1,1,0,0,1-1-1V19a4,4,0,0,1,4-4h6a4,4,0,0,1,4,4v4A1,1,0,0,1,22,24Z"/><path class="cls-2" d="M38,24H26a1,1,0,0,1-1-1V19a4,4,0,0,1,4-4h6a4,4,0,0,1,4,4v4A1,1,0,0,1,38,24Z"/><path class="cls-3" d="M39,21H9a7,7,0,0,0-7,7v7a2,2,0,0,0,2,2H44a2,2,0,0,0,2-2V28A7,7,0,0,0,39,21Z"/><path class="cls-4" d="M2,30v5a2,2,0,0,0,2,2H44a2,2,0,0,0,2-2V30Z"/></g></svg>