<?xml version="1.0" encoding="UTF-8" standalone="no"?> <svg width="64" height="64" viewBox="0 0 64 64" fill="none" xmlns="http://www.w3.org/2000/svg">
<path d="M17 6V21H21V8H35V21H39V6C39 5.46957 38.7893 4.96086 38.4142 4.58579C38.0391 4.21071 37.5304 4 37 4H19C18.4696 4 17.9609 4.21071 17.5858 4.58579C17.2107 4.96086 17 5.46957 17 6V6Z" fill="#AAE1F9"/>
<path d="M37 15V4H19C18.4696 4 17.9609 4.21071 17.5858 4.58579C17.2107 4.96086 17 5.46957 17 6V21H21V18C20.4696 18 19.9609 17.7893 19.5858 17.4142C19.2107 17.0391 19 16.5304 19 16V10C19 9.46957 19.2107 8.96086 19.5858 8.58579C19.9609 8.21071 20.4696 8 21 8H35V21H39V17.816C38.4163 17.6112 37.9105 17.2303 37.5523 16.726C37.1941 16.2216 37.0011 15.6186 37 15V15Z" fill="#57B7EB"/>
<path d="M40 21H16C13.7909 21 12 22.7909 12 25V53C12 55.2091 13.7909 57 16 57H40C42.2091 57 44 55.2091 44 53V25C44 22.7909 42.2091 21 40 21Z" fill="#F9E109"/>
<path d="M16 57H20V59C20 59.5304 19.7893 60.0391 19.4142 60.4142C19.0391 60.7893 18.5304 61 18 61C17.4696 61 16.9609 60.7893 16.5858 60.4142C16.2107 60.0391 16 59.5304 16 59V57Z" fill="#57B7EB"/>
<path d="M36 57H40V59C40 59.5304 39.7893 60.0391 39.4142 60.4142C39.0391 60.7893 38.5304 61 38 61C37.4696 61 36.9609 60.7893 36.5858 60.4142C36.2107 60.0391 36 59.5304 36 59V57Z" fill="#57B7EB"/>
<path d="M33 3H23C21.8954 3 21 3.89543 21 5V7C21 8.10457 21.8954 9 23 9H33C34.1046 9 35 8.10457 35 7V5C35 3.89543 34.1046 3 33 3Z" fill="#F9E109"/>
<path d="M23 3C22.4696 3 21.9609 3.21071 21.5858 3.58579C21.2107 3.96086 21 4.46957 21 5V7C21 7.53043 21.2107 8.03914 21.5858 8.41421C21.9609 8.78929 22.4696 9 23 9H33C33.5304 9 34.0391 8.78929 34.4142 8.41421C34.7893 8.03914 35 7.53043 35 7H27C25.9391 7 24.9217 6.57857 24.1716 5.82843C23.4214 5.07828 23 4.06087 23 3V3Z" fill="#FCBC04"/>
<path d="M37 51C32.2261 51 27.6477 49.1036 24.2721 45.7279C20.8964 42.3523 19 37.7739 19 33V21H16C14.9391 21 13.9217 21.4214 13.1716 22.1716C12.4214 22.9217 12 23.9391 12 25V53C12 54.0609 12.4214 55.0783 13.1716 55.8284C13.9217 56.5786 14.9391 57 16 57H40C41.0609 57 42.0783 56.5786 42.8284 55.8284C43.5786 55.0783 44 54.0609 44 53V51H37Z" fill="#FCBC04"/>
<path d="M38 60C38 59.4696 38.2107 58.9609 38.5858 58.5858C38.9609 58.2107 39.4696 58 40 58V57H36V59C36 59.5304 36.2107 60.0391 36.5858 60.4142C36.9609 60.7893 37.4696 61 38 61V60Z" fill="#4891D3"/>
<path d="M18 60C18 59.4696 18.2107 58.9609 18.5858 58.5858C18.9609 58.2107 19.4696 58 20 58V57H16V59C16 59.5304 16.2107 60.0391 16.5858 60.4142C16.9609 60.7893 17.4696 61 18 61V60Z" fill="#4891D3"/>
<path d="M21 27H3V51H21V27Z" fill="#C4F236"/>
<path d="M19 46C15.8174 46 12.7652 44.7357 10.5147 42.4853C8.26428 40.2348 7 37.1826 7 34V27H3V51H21V46H19Z" fill="#A1D51C"/>
<path d="M36.412 25.768L43.412 37.892L50.34 33.892L45.312 27.492C44.2847 26.1812 42.8189 25.2852 41.1838 24.9685C39.5488 24.6517 37.8545 24.9356 36.412 25.768V25.768Z" fill="#57B7EB"/>
<path d="M46.735 29.3C45.4043 29.8058 43.9372 29.822 42.5957 29.3457C41.2542 28.8694 40.1258 27.9316 39.412 26.7L38.431 25C37.7217 25.1488 37.0403 25.4087 36.412 25.77L43.412 37.894L50.34 33.894L46.735 29.3Z" fill="#4891D3"/>
<path d="M50.072 29.428L32.751 39.428L32.251 38.562C31.7202 37.6437 30.8464 36.9737 29.8217 36.6996C28.7971 36.4254 27.7055 36.5694 26.787 37.1L29.287 41.43C30.0096 42.6817 31.1164 43.6671 32.4433 44.2399C33.7702 44.8128 35.2465 44.9425 36.653 44.61C40.1639 43.7801 43.5348 42.442 46.659 40.638L61 32.356C59.9391 30.5186 58.1918 29.1779 56.1424 28.6288C54.093 28.0797 51.9094 28.3672 50.072 29.428V29.428Z" fill="#57B7EB"/>
<path d="M58.823 29.923L50.659 34.636C47.5348 36.44 44.1639 37.7781 40.653 38.608V38.608C38.9239 39.0152 37.104 38.7204 35.592 37.788L32.751 39.428L32.251 38.562C31.7202 37.6437 30.8464 36.9737 29.8217 36.6996C28.7971 36.4254 27.7055 36.5694 26.787 37.1L29.287 41.43C30.0096 42.6817 31.1164 43.6671 32.4433 44.2399C33.7702 44.8127 35.2465 44.9425 36.653 44.61C40.1639 43.7801 43.5348 42.442 46.659 40.638L61 32.356C60.4499 31.4035 59.7087 30.5752 58.823 29.923V29.923Z" fill="#4891D3"/>
<path d="M50.412 50.017L43.412 37.892L50.34 33.892L53.373 41.448C53.9931 42.9936 54.0351 44.7109 53.4912 46.2849C52.9473 47.8589 51.854 49.184 50.412 50.017Z" fill="#AAE1F9"/>
<path d="M53.8 43.091C53.1764 43.6749 52.3542 43.9998 51.5 44C50.9917 44.0002 50.4903 43.883 50.0348 43.6575C49.5793 43.432 49.182 43.1043 48.874 42.7L46.654 39.792C46.3764 39.4289 45.9765 39.1788 45.5285 39.0881C45.0805 38.9975 44.6149 39.0724 44.218 39.299V39.299L50.406 50.016C51.5954 49.3292 52.5533 48.3038 53.1578 47.0705C53.7622 45.8372 53.9858 44.4518 53.8 43.091Z" fill="#57B7EB"/>
<path d="M44 45.021C43.7348 45.021 43.4804 45.1264 43.2929 45.3139C43.1053 45.5014 43 45.7558 43 46.021V49.654L40.036 51.366C39.9213 51.4312 39.8207 51.5184 39.7399 51.6226C39.6591 51.7269 39.5997 51.846 39.5652 51.9733C39.5306 52.1006 39.5216 52.2334 39.5386 52.3642C39.5556 52.495 39.5983 52.6211 39.6642 52.7353C39.7302 52.8495 39.818 52.9496 39.9228 53.0297C40.0276 53.1098 40.1471 53.1684 40.2746 53.2021C40.4021 53.2358 40.535 53.244 40.6657 53.2261C40.7964 53.2082 40.9222 53.1647 41.036 53.098L43 51.964V53C43 53.7956 42.6839 54.5587 42.1213 55.1213C41.5587 55.6839 40.7956 56 40 56H16C15.4756 56.0003 14.9605 55.8616 14.5072 55.5981C14.0538 55.3346 13.6783 54.9557 13.419 54.5C13.2794 54.285 13.0626 54.1318 12.8134 54.072C12.5641 54.0123 12.3014 54.0505 12.0795 54.1788C11.8577 54.3072 11.6935 54.5158 11.621 54.7617C11.5485 55.0075 11.5732 55.2718 11.69 55.5C12.0445 56.1067 12.5222 56.6324 13.0923 57.0432C13.6624 57.454 14.3122 57.7408 15 57.885V59C15 59.7956 15.316 60.5587 15.8787 61.1213C16.4413 61.6839 17.2043 62 18 62C18.7956 62 19.5587 61.6839 20.1213 61.1213C20.6839 60.5587 21 59.7956 21 59V58H35V59C35 59.7956 35.3161 60.5587 35.8787 61.1213C36.4413 61.6839 37.2043 62 38 62C38.7956 62 39.5587 61.6839 40.1213 61.1213C40.6839 60.5587 41 59.7956 41 59V57.9C42.1286 57.6679 43.1426 57.0538 43.8713 56.1612C44.5999 55.2687 44.9985 54.1522 45 53V46.021C45 45.7558 44.8946 45.5014 44.7071 45.3139C44.5195 45.1264 44.2652 45.021 44 45.021ZM19 59C19 59.2652 18.8946 59.5196 18.7071 59.7071C18.5195 59.8946 18.2652 60 18 60C17.7348 60 17.4804 59.8946 17.2929 59.7071C17.1053 59.5196 17 59.2652 17 59V58H19V59ZM39 59C39 59.2652 38.8946 59.5196 38.7071 59.7071C38.5196 59.8946 38.2652 60 38 60C37.7348 60 37.4804 59.8946 37.2929 59.7071C37.1053 59.5196 37 59.2652 37 59V58H39V59Z" fill="#39519D"/>
<path d="M18 39C18 37.8133 17.6481 36.6533 16.9888 35.6666C16.3295 34.6799 15.3925 33.9109 14.2961 33.4567C13.1997 33.0026 11.9933 32.8838 10.8295 33.1153C9.66558 33.3468 8.59648 33.9182 7.75736 34.7574C6.91825 35.5965 6.3468 36.6656 6.11529 37.8295C5.88378 38.9933 6.0026 40.1997 6.45673 41.2961C6.91085 42.3925 7.67989 43.3295 8.66658 43.9888C9.65328 44.6481 10.8133 45 12 45C13.5908 44.9984 15.116 44.3658 16.2409 43.2409C17.3658 42.116 17.9984 40.5908 18 39ZM12.952 38H11.052C11.0504 36.9338 11.3818 35.8937 12 35.025C12.6196 35.8932 12.9524 36.9334 12.952 38V38ZM12.952 40C12.9524 41.0666 12.6196 42.1068 12 42.975C11.3804 42.1068 11.0476 41.0666 11.048 40H12.952ZM14.642 41.98C14.8062 41.3306 14.913 40.6681 14.961 40H15.861C15.6605 40.7665 15.2361 41.4559 14.642 41.98V41.98ZM15.858 38H14.958C14.91 37.3319 14.8032 36.6694 14.639 36.02C15.2331 36.5441 15.6575 37.2335 15.858 38V38ZM9.358 36.02C9.19379 36.6694 9.08704 37.3319 9.039 38H8.139C8.33947 37.2335 8.76388 36.5441 9.358 36.02V36.02ZM8.142 40H9.042C9.09004 40.6681 9.19679 41.3306 9.361 41.98C8.76688 41.4559 8.34247 40.7665 8.142 40V40Z" fill="#39519D"/>
<path d="M22 51V27C22 26.7348 21.8946 26.4804 21.7071 26.2929C21.5196 26.1054 21.2652 26 21 26H13V25C13 24.2044 13.3161 23.4413 13.8787 22.8787C14.4413 22.3161 15.2044 22 16 22H40C40.2652 22 40.5196 21.8946 40.7071 21.7071C40.8946 21.5196 41 21.2652 41 21C41 20.7348 40.8946 20.4804 40.7071 20.2929C40.5196 20.1054 40.2652 20 40 20V6C40 5.20435 39.6839 4.44129 39.1213 3.87868C38.5587 3.31607 37.7956 3 37 3H35.22C34.941 2.68667 34.5991 2.43566 34.2166 2.26336C33.8341 2.09105 33.4195 2.00132 33 2H23C22.5805 2.00132 22.1659 2.09105 21.7834 2.26336C21.4009 2.43566 21.059 2.68667 20.78 3H19C18.2044 3 17.4413 3.31607 16.8787 3.87868C16.3161 4.44129 16 5.20435 16 6V20C14.6744 20.0016 13.4036 20.5289 12.4662 21.4662C11.5289 22.4036 11.0016 23.6744 11 25V26H3C2.73478 26 2.48043 26.1054 2.29289 26.2929C2.10536 26.4804 2 26.7348 2 27V43C2 43.2652 2.10536 43.5196 2.29289 43.7071C2.48043 43.8946 2.73478 44 3 44C3.26522 44 3.51957 43.8946 3.70711 43.7071C3.89464 43.5196 4 43.2652 4 43V28H20V50H4V47C4 46.7348 3.89464 46.4804 3.70711 46.2929C3.51957 46.1054 3.26522 46 3 46C2.73478 46 2.48043 46.1054 2.29289 46.2929C2.10536 46.4804 2 46.7348 2 47V51C2 51.2652 2.10536 51.5196 2.29289 51.7071C2.48043 51.8946 2.73478 52 3 52H21C21.2652 52 21.5196 51.8946 21.7071 51.7071C21.8946 51.5196 22 51.2652 22 51ZM37 5C37.2652 5 37.5196 5.10536 37.7071 5.29289C37.8946 5.48043 38 5.73478 38 6V20H36V5H37ZM23 4H33C33.2652 4 33.5196 4.10536 33.7071 4.29289C33.8946 4.48043 34 4.73478 34 5V7C34 7.26522 33.8946 7.51957 33.7071 7.70711C33.5196 7.89464 33.2652 8 33 8H23C22.7348 8 22.4804 7.89464 22.2929 7.70711C22.1054 7.51957 22 7.26522 22 7V5C22 4.73478 22.1054 4.48043 22.2929 4.29289C22.4804 4.10536 22.7348 4 23 4V4ZM18 6C18 5.73478 18.1054 5.48043 18.2929 5.29289C18.4804 5.10536 18.7348 5 19 5H20V7C20 7.79565 20.3161 8.55871 20.8787 9.12132C21.4413 9.68393 22.2044 10 23 10H33C33.3414 9.99669 33.6797 9.93444 34 9.816V20H22V12C22 11.7348 21.8946 11.4804 21.7071 11.2929C21.5196 11.1054 21.2652 11 21 11C20.7348 11 20.4804 11.1054 20.2929 11.2929C20.1054 11.4804 20 11.7348 20 12V20H18V6Z" fill="#39519D"/>
<path d="M31.056 53.955C31.2316 53.955 31.404 53.9088 31.556 53.821L41.082 48.321C41.3118 48.1884 41.4795 47.9699 41.5483 47.7137C41.617 47.4574 41.5811 47.1843 41.4485 46.9545C41.3159 46.7247 41.0974 46.557 40.8412 46.4883C40.5849 46.4195 40.3118 46.4554 40.082 46.588L30.556 52.088C30.3649 52.1979 30.2154 52.3678 30.1308 52.5714C30.0463 52.7749 30.0313 53.0008 30.0884 53.2137C30.1454 53.4267 30.2712 53.6148 30.4462 53.7488C30.6212 53.8829 30.8356 53.9554 31.056 53.955V53.955Z" fill="#39519D"/>
<path d="M33.447 29.366L29.983 31.366C29.8683 31.4312 29.7677 31.5184 29.6869 31.6226C29.6061 31.7269 29.5467 31.846 29.5122 31.9733C29.4776 32.1006 29.4686 32.2334 29.4856 32.3642C29.5026 32.495 29.5453 32.6211 29.6112 32.7353C29.6772 32.8495 29.765 32.9496 29.8698 33.0297C29.9746 33.1098 30.0941 33.1684 30.2216 33.2021C30.3491 33.2358 30.482 33.244 30.6127 33.2261C30.7434 33.2082 30.8692 33.1647 30.983 33.098L34.447 31.098C34.6748 30.9645 34.8405 30.7462 34.908 30.4909C34.9755 30.2356 34.9393 29.964 34.8073 29.7353C34.6752 29.5066 34.4581 29.3394 34.2032 29.2703C33.9484 29.2011 33.6765 29.2355 33.447 29.366Z" fill="#39519D"/>
<path d="M60.5 38.366L57.036 40.366C56.9214 40.4312 56.8208 40.5184 56.74 40.6226C56.6591 40.7269 56.5998 40.846 56.5652 40.9733C56.5307 41.1006 56.5216 41.2334 56.5386 41.3642C56.5556 41.495 56.5983 41.6211 56.6643 41.7353C56.7302 41.8496 56.8181 41.9496 56.9228 42.0297C57.0276 42.1098 57.1472 42.1684 57.2747 42.2021C57.4022 42.2358 57.5351 42.244 57.6657 42.2261C57.7964 42.2082 57.9222 42.1647 58.036 42.098L61.5 40.098C61.6147 40.0328 61.7153 39.9456 61.7961 39.8414C61.8769 39.7372 61.9363 39.618 61.9708 39.4907C62.0054 39.3634 62.0144 39.2306 61.9974 39.0998C61.9804 38.969 61.9377 38.8429 61.8718 38.7287C61.8058 38.6145 61.718 38.5144 61.6132 38.4343C61.5084 38.3542 61.3889 38.2956 61.2614 38.2619C61.1339 38.2282 61.001 38.2201 60.8703 38.2379C60.7396 38.2558 60.6138 38.2993 60.5 38.366Z" fill="#39519D"/>
<path d="M55.5 52.366L52.036 54.366C51.9214 54.4312 51.8208 54.5184 51.74 54.6226C51.6591 54.7269 51.5998 54.846 51.5652 54.9733C51.5307 55.1006 51.5216 55.2334 51.5386 55.3642C51.5556 55.495 51.5983 55.6211 51.6643 55.7353C51.7302 55.8496 51.8181 55.9496 51.9228 56.0297C52.0276 56.1098 52.1472 56.1684 52.2747 56.2021C52.4022 56.2358 52.5351 56.244 52.6657 56.2261C52.7964 56.2082 52.9222 56.1647 53.036 56.098L56.5 54.098C56.6147 54.0328 56.7153 53.9456 56.7961 53.8414C56.8769 53.7372 56.9363 53.618 56.9708 53.4907C57.0054 53.3634 57.0144 53.2306 56.9974 53.0998C56.9804 52.969 56.9377 52.8429 56.8718 52.7287C56.8058 52.6145 56.718 52.5144 56.6132 52.4343C56.5084 52.3542 56.3889 52.2956 56.2614 52.2619C56.1339 52.2282 56.001 52.2201 55.8703 52.2379C55.7396 52.2558 55.6138 52.2993 55.5 52.366Z" fill="#39519D"/>
<path d="M60.5 46.366L57.036 48.366C56.9214 48.4312 56.8208 48.5184 56.74 48.6226C56.6591 48.7269 56.5998 48.846 56.5652 48.9733C56.5307 49.1006 56.5216 49.2334 56.5386 49.3642C56.5556 49.495 56.5983 49.6211 56.6643 49.7353C56.7302 49.8496 56.8181 49.9496 56.9228 50.0297C57.0276 50.1098 57.1472 50.1684 57.2747 50.2021C57.4022 50.2358 57.5351 50.244 57.6657 50.2261C57.7964 50.2082 57.9222 50.1647 58.036 50.098L61.5 48.098C61.6147 48.0328 61.7153 47.9456 61.7961 47.8414C61.8769 47.7372 61.9363 47.618 61.9708 47.4907C62.0054 47.3634 62.0144 47.2306 61.9974 47.0998C61.9804 46.969 61.9377 46.8429 61.8718 46.7287C61.8058 46.6145 61.718 46.5144 61.6132 46.4343C61.5084 46.3542 61.3889 46.2956 61.2614 46.2619C61.1339 46.2282 61.001 46.2201 60.8703 46.2379C60.7396 46.2558 60.6138 46.2993 60.5 46.366Z" fill="#39519D"/>
<path d="M23.493 49.392C23.6256 49.6217 23.844 49.7893 24.1002 49.8579C24.3564 49.9265 24.6293 49.8906 24.859 49.758L28.323 47.758C28.5508 47.6245 28.7165 47.4062 28.784 47.1509C28.8515 46.8956 28.8153 46.624 28.6833 46.3953C28.5512 46.1666 28.3341 45.9994 28.0792 45.9303C27.8244 45.8611 27.5525 45.8955 27.323 46.026L23.859 48.026C23.6293 48.1586 23.4617 48.377 23.3931 48.6332C23.3244 48.8894 23.3604 49.1623 23.493 49.392Z" fill="#39519D"/>
<path d="M54.3 41.076L53.095 38.076L61.495 33.224C61.6089 33.1583 61.7087 33.0709 61.7887 32.9666C61.8687 32.8624 61.9274 32.7433 61.9614 32.6164C61.9954 32.4894 62.004 32.357 61.9868 32.2267C61.9696 32.0964 61.9268 31.9708 61.861 31.857C60.6654 29.7922 58.6997 28.2858 56.395 27.6683C54.0903 27.0508 51.6348 27.3726 49.567 28.563L48.091 29.415L46.091 26.871C44.9097 25.3802 43.2335 24.3618 41.366 24.0003C39.4986 23.6387 37.5634 23.9579 35.911 24.9C35.6813 25.0326 35.5138 25.251 35.4451 25.5072C35.3765 25.7634 35.4124 26.0363 35.545 26.266L38.7 31.732C38.8326 31.9618 39.0511 32.1295 39.3074 32.1983C39.4343 32.2323 39.5666 32.241 39.6969 32.2239C39.8271 32.2068 39.9527 32.1642 40.0665 32.0985C40.1803 32.0328 40.2801 31.9454 40.3601 31.8412C40.4401 31.737 40.4987 31.6181 40.5328 31.4912C40.5668 31.3643 40.5755 31.2319 40.5584 31.1017C40.5413 30.9714 40.4987 30.8458 40.433 30.732L37.82 26.208C38.9957 25.7798 40.2763 25.7329 41.4802 26.074C42.684 26.415 43.7497 27.1268 44.526 28.108L46.346 30.427L33.117 38.062C32.4528 36.9149 31.3608 36.078 30.0804 35.7349C28.8 35.3918 27.4358 35.5706 26.287 36.232C26.0573 36.3646 25.8898 36.583 25.8211 36.8392C25.7525 37.0954 25.7884 37.3683 25.921 37.598L28.421 41.928C29.0914 43.1019 30.0602 44.0777 31.2293 44.7565C32.3984 45.4353 33.7262 45.7929 35.078 45.793C35.6862 45.7927 36.2923 45.7216 36.884 45.581C38.7253 45.1433 40.5305 44.566 42.284 43.854C42.5299 43.7544 42.7261 43.5612 42.8295 43.317C42.933 43.0727 42.9351 42.7974 42.8355 42.5515C42.7359 42.3057 42.5428 42.1094 42.2985 42.006C42.0542 41.9026 41.7789 41.9004 41.533 42C39.8737 42.674 38.1654 43.2206 36.423 43.635C35.3925 43.8834 34.3131 43.8385 33.3067 43.5056C32.3003 43.1727 31.4071 42.5649 30.728 41.751L50.572 30.294C51.6705 29.6581 52.922 29.3348 54.191 29.359L52.804 30.159C52.6902 30.2247 52.5905 30.3121 52.5105 30.4163C52.4305 30.5205 52.3718 30.6395 52.3378 30.7664C52.3037 30.8932 52.295 31.0256 52.3121 31.1559C52.3293 31.2861 52.3719 31.4117 52.4375 31.5255C52.5032 31.6393 52.5906 31.739 52.6948 31.819C52.799 31.899 52.918 31.9577 53.0449 31.9918C53.1718 32.0258 53.3041 32.0345 53.4344 32.0174C53.5646 32.0003 53.6902 31.9577 53.804 31.892L57.04 30.023C58.0292 30.4819 58.8966 31.167 59.572 32.023L52.343 36.2L51.268 33.52C51.2198 33.3972 51.1478 33.2851 51.056 33.1902C50.9643 33.0953 50.8547 33.0196 50.7335 32.9672C50.6123 32.9149 50.482 32.8871 50.3501 32.8854C50.2181 32.8837 50.0871 32.9081 49.9646 32.9573C49.8422 33.0065 49.7306 33.0794 49.6365 33.1719C49.5423 33.2643 49.4674 33.3745 49.416 33.4961C49.3646 33.6176 49.3378 33.7482 49.3372 33.8801C49.3365 34.0121 49.3619 34.1429 49.412 34.265L52.445 41.821C52.9055 42.984 52.9881 44.2624 52.6809 45.475C52.3738 46.6875 51.6926 47.7725 50.734 48.576L44.277 37.392C44.2118 37.2774 44.1246 37.1767 44.0204 37.0959C43.9162 37.0151 43.797 36.9558 43.6697 36.9212C43.5424 36.8866 43.4096 36.8776 43.2788 36.8946C43.148 36.9116 43.0219 36.9543 42.9077 37.0202C42.7935 37.0862 42.6934 37.1741 42.6133 37.2788C42.5332 37.3836 42.4746 37.5032 42.4409 37.6307C42.4072 37.7582 42.3991 37.8911 42.4169 38.0217C42.4348 38.1524 42.4783 38.2782 42.545 38.392L49.545 50.517C49.6776 50.7467 49.8961 50.9143 50.1522 50.9829C50.4084 51.0515 50.6813 51.0156 50.911 50.883C52.5559 49.9243 53.8024 48.4075 54.4242 46.608C55.0461 44.8085 55.002 42.8457 54.3 41.076V41.076ZM31.385 39.062L30.085 39.812L29.652 40.062L28.238 37.613C28.848 37.4994 29.4782 37.5778 30.0418 37.8373C30.6054 38.0968 31.0747 38.5247 31.385 39.062V39.062Z" fill="#39519D"/>
</svg>
