<?xml version="1.0" encoding="UTF-8" standalone="no"?> <svg xmlns="http://www.w3.org/2000/svg" xmlns:xlink="http://www.w3.org/1999/xlink" viewBox="0 0 512 512"><defs><linearGradient id="linear-gradient" x1="58.937" y1="257.77" x2="464" y2="257.77" gradientUnits="userSpaceOnUse"><stop offset="0" stop-color="#00b377"/><stop offset="0.126" stop-color="#05ae7a"/><stop offset="0.274" stop-color="#13a081"/><stop offset="0.417" stop-color="#288c8c"/><stop offset="0.505" stop-color="#2b869f"/><stop offset="0.842" stop-color="#3671e4"/><stop offset="1" stop-color="#3a69ff"/></linearGradient></defs><g id="solid_gradient" data-name="solid gradient"><path d="M464,416V376a4.363,4.363,0,0,0-.05-.52,2.3,2.3,0,0,0-.03-.26,3.448,3.448,0,0,0-.24-.79l-13.7-32A4,4,0,0,0,446.3,340H357.15a3.983,3.983,0,0,0-1.09.15l-16.9,4.81c.01-1.46.02-2.93.02-4.39a567.533,567.533,0,0,0-19.93-149.01V137.89a165.5,165.5,0,0,1,30.95,98.09l-.09,8.59a6.152,6.152,0,0,0,10.23,4.67l.09,4.03a8.278,8.278,0,0,0,11.72,7.37l14.17-6.44a8.306,8.306,0,0,0,4.86-7.55v-7.42A215.863,215.863,0,0,0,327.97,86.61a20.006,20.006,0,0,0-14.24-5.89H293.4a14.334,14.334,0,0,0-9.77-12.14V50.81h12.29a4,4,0,0,0,0-8H283.78v-.79A18.5,18.5,0,0,0,265.3,23.54h-2.14a18.5,18.5,0,0,0-18.48,18.48v.79H231.72a4,4,0,1,0,0,8H245l.07,3.28c0,3.3,1.86,6.55,3.49,9.39l2.5,4.36H220.14a20.575,20.575,0,0,0-20.55,20.55v1.7l-37.64,21.38,37.34-54.92a6.351,6.351,0,0,0,1.07-3.51,6.213,6.213,0,0,0-.78-3.03,6.285,6.285,0,0,0-7.5-2.95l.96-1.73a8.294,8.294,0,0,0-4.09-11.7l-12.14-5.01a8.319,8.319,0,0,0-10.06,3.07l-48.64,72.76a36.071,36.071,0,0,0,29.77,55.89,36.359,36.359,0,0,0,17.91-4.81l16.83-9.56-.21,54.3a19.979,19.979,0,0,0-8.59,16.41v2.36a20.027,20.027,0,0,0,20,20H218.7a472.082,472.082,0,0,1-4.32,60.06,472.141,472.141,0,0,1-11.94,58.98c-.04.12-8.44,28.21-8.44,28.21v.01L62.9,423.62a4,4,0,0,0,1.1,7.85,4.221,4.221,0,0,0,1.1-.15l126.05-35.89-8.56,27.38a4,4,0,0,0,3.82,5.19H272.3a4,4,0,0,0,2.83-6.83L251.06,397.1l6.07-19.71c.08-.27.17-.54.25-.81v-.01l27.13-7.72c-.16,3.69-3.32,54.9-3.32,54.9a4,4,0,0,0,4,4.25h77.3a4,4,0,0,0,2.6-7.04l-28.52-24.44s2.38-39.15,2.46-43.2L357.71,348h85.95l10.9,25.45-49.4,14.72a3.955,3.955,0,0,0-2.51,2.2l-15.34,34.31-54.49,21.63a4,4,0,0,0,1.01,7.69L448,467.55V488a4,4,0,0,0,8,0V464.65l6.81-20.3a4.014,4.014,0,0,0-.04-2.65l-6.13-16.68,6.19-6.19A4,4,0,0,0,464,416ZM382.3,220.04q.87,9.51.88,19.19v7.42a.285.285,0,0,1-.17.27l-14.17,6.44a.259.259,0,0,1-.28-.02.255.255,0,0,1-.13-.24l-.37-17.53a4,4,0,0,0-7.45-1.95l-2.42,4.11.01-1.66c.06-5.37-.14-10.71-.57-16.03ZM173.39,36.14a.3.3,0,0,1,.36-.12l12.15,5.01a.292.292,0,0,1,.17.17.257.257,0,0,1-.03.24l-7.19,12.92a4.008,4.008,0,0,0,5.29,5.53l4.85-2.42L176.75,75.48,156.27,61.76ZM279.1,75.84a6.385,6.385,0,0,1,6.38,6.38v82.29a34.478,34.478,0,0,1-5.2.76,4,4,0,0,0,.29,7.99c.09,0,.19,0,.29-.01a44.521,44.521,0,0,0,30.39-15.35v5.83a48.156,48.156,0,0,1-31.14,13.58,4,4,0,0,0,.2,7.99h.2c1.67-.09,3.33-.25,4.97-.48v11.86H272.71V82.22A6.393,6.393,0,0,1,279.1,75.84Zm10.39,128.84a13.165,13.165,0,1,1-.05,0ZM269.88,63.76V61.47l4.68-2.7a12.509,12.509,0,0,0,1.07-.72v9.79h-6.47A12.119,12.119,0,0,0,269.88,63.76ZM207.59,88.39a12.564,12.564,0,0,1,12.55-12.55h46.08a14.275,14.275,0,0,0-1.51,6.38v20.82a4.091,4.091,0,0,0-1-.14H252.58V97.61a4,4,0,1,0-8,0v5.29H224.9V97.61a4,4,0,1,0-8,0v5.29h-9.31Zm44.99,22.51v4.64a4,4,0,0,1-8,0V110.9Zm-27.68,0v4.64a4,4,0,0,1-8,0V110.9ZM192,102a4,4,0,0,1,8,0v22.5a4,4,0,0,1-8,0Zm-1.58,94.68.21-54.28a8.9,8.9,0,0,1,8.88-8.85h42.95a8.894,8.894,0,0,1,8.88,8.92l-.2,54.21ZM262,419.359H192.05l2.4-7.68,60.19.321Zm22.8-58.919v.01l-24.74,7.04c.01-.02.01-.05.02-.07.04-.13.08-.26.11-.39A480.033,480.033,0,0,0,277.76,260h.81A561.743,561.743,0,0,1,284.8,360.44ZM281.99,252h-8.05a4,4,0,0,0-4,3.83,472.732,472.732,0,0,1-16.57,105.89L211.27,356A479.051,479.051,0,0,0,226.7,239.04h62.78a21.175,21.175,0,0,0,4-41.97v-.98h18.7a559.219,559.219,0,0,1,19,144.56c0,3.1-.24,16.96-.38,20.6l-37.96-2.36a569.387,569.387,0,0,0-6.9-103.52A4,4,0,0,0,281.99,252Zm69.9,168.178H289.429l.531-8.5h52.006ZM240.96,143.16H200a4,4,0,0,0-4,4v41.52h48.96V147.16A4,4,0,0,0,240.96,143.16Zm-4,29.43H232.5v2.09a4,4,0,0,1-8,0v-2.09h-6.6v2.09a4,4,0,0,1-8,0v-2.09H204v-8h5.9v-3.53a4,4,0,0,1,8,0v3.53h6.6v-3.53a4,4,0,0,1,8,0v3.53h4.46ZM335.089,67.031a4,4,0,0,1,1.752-4.5L363.063,46.4a11.8,11.8,0,0,1,6.187-1.751H370.3a11.729,11.729,0,0,1,8.346,3.457,3.8,3.8,0,0,0,5.731-.407L387.1,44.06A20.243,20.243,0,0,1,403.22,36a21.186,21.186,0,0,1,17.663,9.453l.417.626a.605.605,0,0,0,.93.091,13.172,13.172,0,0,1,21.1,3.423,15.936,15.936,0,0,0,7.081,7.08l11.382,5.691A4,4,0,0,1,460,69.942H338.938A4,4,0,0,1,335.089,67.031Zm-276,224a4,4,0,0,1,1.752-4.5L87.063,270.4a11.8,11.8,0,0,1,6.187-1.751H94.3a11.729,11.729,0,0,1,8.346,3.457,3.8,3.8,0,0,0,5.731-.407l2.729-3.637A20.243,20.243,0,0,1,127.22,260a21.186,21.186,0,0,1,17.663,9.453l.417.626a.605.605,0,0,0,.93.091,13.172,13.172,0,0,1,21.1,3.423,15.936,15.936,0,0,0,7.081,7.08l11.382,5.691A4,4,0,0,1,184,293.942H62.938A4,4,0,0,1,59.089,291.031Z" style="fill:url(#linear-gradient)"/></g></svg>
